<svg width="16" height="16" viewBox="0 0 16 16" fill="none" xmlns="http://www.w3.org/2000/svg">
<path d="M14.6666 8C14.6666 9.31854 14.2756 10.6075 13.5431 11.7038C12.8105 12.8001 11.7693 13.6546 10.5511 14.1592C9.33297 14.6638 7.99253 14.7958 6.69932 14.5386C5.40611 14.2813 4.21823 13.6464 3.28588 12.714C2.35353 11.7817 1.71859 10.5938 1.46135 9.3006C1.20412 8.00739 1.33614 6.66695 1.84072 5.44877C2.34531 4.2306 3.19979 3.18941 4.29612 2.45686C5.39245 1.72432 6.68138 1.33333 7.99992 1.33333C9.76803 1.33333 11.4637 2.03571 12.714 3.28595C13.9642 4.53619 14.6666 6.23189 14.6666 8Z" stroke="#72757A" stroke-width="1.5" stroke-linecap="round" stroke-linejoin="round"/>
<path d="M10.4734 10.12L8.40675 8.88667C8.21638 8.7593 8.05825 8.58939 7.94486 8.39038C7.83147 8.19137 7.76593 7.96871 7.75342 7.74V5.00667" stroke="#72757A" stroke-width="1.5" stroke-linecap="round" stroke-linejoin="round"/>
</svg>
